<svg width="17" height="17" viewBox="0 0 17 17" fill="none" xmlns="http://www.w3.org/2000/svg">
<path d="M8.33437 15.8335C9.99847 15.8333 11.6152 15.2796 12.9301 14.2596C14.245 13.2397 15.1833 11.8114 15.5974 10.1997C16.0114 8.58789 15.8777 6.8842 15.2172 5.35679C14.5568 3.82938 13.4071 2.565 11.9491 1.76271C10.4912 0.960419 8.80788 0.665786 7.16412 0.925193C5.52037 1.1846 4.00957 1.98331 2.86958 3.19559C1.72958 4.40787 1.02513 5.96486 0.867141 7.62144C0.709147 9.27801 1.10658 10.9401 1.99687 12.346L0.834371 15.8335L4.32187 14.671C5.52152 15.4324 6.91351 15.8357 8.33437 15.8335Z" fill="#606060" stroke="#606060" stroke-width="1.66667" stroke-linecap="round" stroke-linejoin="round"/>
</svg>
