<svg width="17" height="19" viewBox="0 0 17 19" fill="none" xmlns="http://www.w3.org/2000/svg">
<path d="M5.91251 16.665C6.51961 17.2019 7.30203 17.4983 8.11246 17.4983C8.9229 17.4983 9.70531 17.2019 10.3124 16.665M13.1125 5.83203C13.1125 4.50595 12.5857 3.23418 11.648 2.2965C10.7103 1.35882 9.43855 0.832031 8.11246 0.832031C6.78638 0.832031 5.51462 1.35882 4.57694 2.2965C3.63926 3.23418 3.11246 4.50595 3.11246 5.83203C3.18315 7.75912 2.70455 9.66659 1.73246 11.332C1.36516 11.8293 1.0627 12.3713 0.832434 12.945C0.829477 13.0048 0.842833 13.0643 0.871009 13.1171C0.899185 13.17 0.94116 13.2142 0.992469 13.245C1.52259 13.3481 2.0646 13.3757 2.60245 13.327H13.6225C14.1603 13.3757 14.7023 13.3481 15.2325 13.245C15.2838 13.2142 15.3257 13.17 15.3539 13.1171C15.3821 13.0643 15.3955 13.0048 15.3925 12.945C15.1622 12.3713 14.8598 11.8293 14.4925 11.332C13.5204 9.66659 13.0418 7.75912 13.1125 5.83203Z" fill="#929292"/>
<path d="M5.91251 16.665C6.51961 17.2019 7.30203 17.4983 8.11246 17.4983C8.9229 17.4983 9.70531 17.2019 10.3124 16.665M13.1125 5.83203C13.1125 4.50595 12.5857 3.23418 11.648 2.2965C10.7103 1.35882 9.43855 0.832031 8.11246 0.832031C6.78638 0.832031 5.51462 1.35882 4.57694 2.2965C3.63926 3.23418 3.11246 4.50595 3.11246 5.83203C3.18315 7.75912 2.70455 9.66659 1.73246 11.332C1.36516 11.8293 1.0627 12.3713 0.832434 12.945C0.829477 13.0048 0.842833 13.0643 0.871009 13.1171C0.899185 13.17 0.94116 13.2142 0.992469 13.245C1.52259 13.3481 2.0646 13.3757 2.60245 13.327H13.6225C14.1603 13.3757 14.7023 13.3481 15.2325 13.245C15.2838 13.2142 15.3257 13.17 15.3539 13.1171C15.3821 13.0643 15.3955 13.0048 15.3925 12.945C15.1622 12.3713 14.8598 11.8293 14.4925 11.332C13.5204 9.66659 13.0418 7.75912 13.1125 5.83203Z" stroke="#929292" stroke-width="1.667" stroke-linecap="round" stroke-linejoin="round"/>
</svg>
