<svg width="31" height="30" viewBox="0 0 31 30" fill="none" xmlns="http://www.w3.org/2000/svg">
<path d="M14.4462 4.12134C14.7174 3.67072 15.3707 3.67072 15.6419 4.12134L18.5664 8.98088C18.6638 9.14277 18.8227 9.25823 19.0068 9.30086L24.5322 10.5806C25.0446 10.6992 25.2465 11.3206 24.9017 11.7177L21.1837 16.0008C21.0599 16.1435 20.9992 16.3303 21.0155 16.5185L21.5059 22.169C21.5514 22.6929 21.0228 23.0769 20.5386 22.8718L15.3162 20.6593C15.1422 20.5856 14.9458 20.5856 14.7718 20.6593L9.54949 22.8718C9.06522 23.0769 8.53668 22.6929 8.58215 22.169L9.07254 16.5185C9.08887 16.3303 9.02817 16.1435 8.90432 16.0008L5.18634 11.7177C4.84157 11.3206 5.04346 10.6992 5.55583 10.5806L11.0813 9.30086C11.2653 9.25823 11.4242 9.14277 11.5217 8.98088L14.4462 4.12134Z" fill="#F2C94C"/>
<path d="M14.8687 10.6279L16.017 12.5361L18.1867 13.0386L16.7268 14.7205L16.9193 16.9392L14.8687 16.0704L12.818 16.9392L13.0106 14.7205L11.5506 13.0386L13.7203 12.5361L14.8687 10.6279Z" fill="#F2C94C"/>
<path d="M14.8687 10.6279L16.017 12.5361L18.1867 13.0386L16.7268 14.7205L16.9193 16.9392L14.8687 16.0704L12.818 16.9392L13.0106 14.7205L11.5506 13.0386L13.7203 12.5361L14.8687 10.6279Z" fill="#F2C94C"/>
<path d="M14.8687 10.6279L16.017 12.5361L18.1867 13.0386L16.7268 14.7205L16.9193 16.9392L14.8687 16.0704L12.818 16.9392L13.0106 14.7205L11.5506 13.0386L13.7203 12.5361L14.8687 10.6279Z" fill="#F2C94C"/>
<path d="M14.8687 10.6279L16.017 12.5361L18.1867 13.0386L16.7268 14.7205L16.9193 16.9392L14.8687 16.0704L12.818 16.9392L13.0106 14.7205L11.5506 13.0386L13.7203 12.5361L14.8687 10.6279Z" fill="#F2C94C"/>
<path d="M14.8687 10.6279L16.017 12.5361L18.1867 13.0386L16.7268 14.7205L16.9193 16.9392L14.8687 16.0704L12.818 16.9392L13.0106 14.7205L11.5506 13.0386L13.7203 12.5361L14.8687 10.6279Z" fill="#F2C94C"/>
</svg>
